<?xml version="1.0" encoding="UTF-8"?>
<svg width="130px" height="40px" viewBox="0 0 500 153" version="1.1" xmlns="http://www.w3.org/2000/svg" xmlns:xlink="http://www.w3.org/1999/xlink">
    <title>mkn-logo</title>
    <g id="Page-1" stroke="none" stroke-width="1" fill="none" fill-rule="evenodd">
        <g id="mkn-logo" fill-rule="nonzero">
            <path d="M185.049275,91.6030534 L185.049275,56.7151718 L196.90221,91.6030534 L201.79434,91.6030534 L213.703185,57.3022275 L213.703185,91.6030534 L218.930776,91.6030534 L218.930776,50.6209745 L211.634512,50.6209745 L201.822295,79.1351085 C200.834551,82.0237953 200.10772,84.2136063 199.641803,85.7045414 C199.231796,84.3626998 198.579512,82.340619 197.684951,79.6382991 L197.684951,79.6382991 L187.984554,50.6209745 L179.821684,50.6209745 L179.821684,91.6030534 L185.049275,91.6030534 Z M233.187843,91.6030534 L233.187843,72.4259005 C235.200605,72.4259005 236.840634,72.9989787 238.107929,74.1451351 C239.375224,75.2912914 240.950024,77.4018965 242.832329,80.4769501 L242.832329,80.4769501 L249.681313,91.6030534 L256.418476,91.6030534 L247.976056,77.9609971 C245.404193,73.8050155 242.795056,71.3636093 240.148646,70.6367784 C241.471851,70.0963144 242.608689,69.3741427 243.55916,68.4702633 C244.509631,67.5663839 245.674424,65.3812321 247.053539,61.914808 C248.153104,59.1752147 249.13153,57.3860926 249.988818,56.5474416 C250.827469,55.7087906 252.113401,55.2894651 253.846613,55.2894651 C253.977069,55.2894651 254.340485,55.2987834 254.936859,55.3174201 C255.477323,55.3360568 255.840738,55.3453751 256.027105,55.3453751 L256.027105,55.3453751 L256.027105,50.6489295 C255.937649,50.6191108 255.216036,50.6012196 253.862267,50.5952558 L252.728411,50.5930194 C251.088383,50.5930194 249.588129,50.9704124 248.227651,51.7251983 C246.867173,52.4799842 245.818859,53.4118186 245.08271,54.5207016 C244.34656,55.6295846 243.410067,57.5258677 242.273229,60.2095509 C240.707747,63.862342 239.421815,66.1686322 238.415434,67.1284217 C237.409053,68.0882112 235.666523,68.5681059 233.187843,68.5681059 L233.187843,68.5681059 L233.187843,50.6209745 L227.764566,50.6209745 L227.764566,91.6030534 L233.187843,91.6030534 Z M266.622063,91.6030534 L266.622063,72.2861254 L287.923798,72.2861254 L287.923798,91.6030534 L293.347075,91.6030534 L293.347075,50.6209745 L287.923798,50.6209745 L287.923798,67.4499046 L266.622063,67.4499046 L266.622063,50.6209745 L261.198786,50.6209745 L261.198786,91.6030534 L266.622063,91.6030534 Z M335.978501,92.3019293 C340.246302,92.3019293 343.857161,91.132477 346.811076,88.7935726 C349.764991,86.4546681 351.810368,83.0581316 352.947206,78.6039629 L352.947206,78.6039629 L347.52393,77.2341663 C346.778462,80.6819537 345.352755,83.2817718 343.246809,85.0336206 C341.140864,86.7854693 338.569,87.6613937 335.53122,87.6613937 C333.033904,87.6613937 330.713636,87.018428 328.570417,85.7324964 C326.427198,84.4465649 324.847738,82.5036901 323.832039,79.903872 C322.816339,77.3040539 322.308489,74.2616144 322.308489,70.7765536 C322.308489,68.0742337 322.737133,65.4511197 323.594421,62.9072117 C324.451709,60.3633036 325.937985,58.3365637 328.053249,56.8269919 C330.168513,55.3174201 332.800945,54.5626342 335.950546,54.5626342 C338.690139,54.5626342 340.963815,55.2428733 342.771574,56.6033516 C344.579333,57.9638299 345.958448,60.1350042 346.908919,63.1168744 L346.908919,63.1168744 L352.24833,61.8588979 C351.148766,58.07565 349.201232,55.1403715 346.405728,53.0530624 C343.610225,50.9657532 340.162437,49.9220986 336.062366,49.9220986 C332.446848,49.9220986 329.134177,50.7467721 326.124351,52.3961191 C323.114526,54.0454661 320.794258,56.4589173 319.163548,59.6364727 C317.532838,62.8140282 316.717483,66.5367068 316.717483,70.8045086 C316.717483,74.7182133 317.439654,78.3803226 318.883998,81.7908367 C320.328341,85.2013508 322.434287,87.8058281 325.201835,89.6042685 C327.969384,91.402709 331.561605,92.3019293 335.978501,92.3019293 Z M365.107646,91.6030534 L365.107646,55.4571953 L386.465291,55.4571953 L386.465291,91.6030534 L391.916523,91.6030534 L391.916523,50.6209745 L359.684369,50.6209745 L359.684369,91.6030534 L365.107646,91.6030534 Z M413.190303,92.2739742 C416.228083,92.2739742 418.627557,91.6682818 420.388724,90.4568971 C422.149891,89.2455123 423.67344,87.5309369 424.959372,85.3131709 C426.245304,83.0954049 426.888269,80.2533099 426.888269,76.7868857 C426.888269,72.2208969 425.611656,68.6007201 423.05843,65.9263553 C420.505203,63.2519904 417.281056,61.914808 413.385988,61.914808 C411.261406,61.914808 409.351145,62.3853844 407.655206,63.3265372 C405.959268,64.2676899 404.477651,65.6794191 403.210356,67.5617247 C403.284903,64.7848581 403.652977,62.5158412 404.31458,60.7546741 C404.976182,58.993507 406.061769,57.7122346 407.571341,56.910857 C409.080913,56.1094794 411.91369,55.7087906 416.069671,55.7087906 C419.200635,55.7087906 421.301922,55.5969704 422.373531,55.3733302 C423.445141,55.1496899 424.321065,54.6464993 425.001305,53.8637583 C425.681544,53.0810174 426.124165,51.6925841 426.329169,49.6984584 L426.329169,49.6984584 L421.884318,49.6425483 C421.753862,50.0525555 421.455674,50.3134691 420.989757,50.4252892 C420.52384,50.5371094 418.576306,50.5930194 415.147155,50.5930194 C409.630695,50.5930194 405.544601,51.9534977 402.888873,54.6744543 C400.233145,57.3954109 398.905281,62.6789122 398.905281,70.5249583 C398.905281,76.768249 399.427108,81.1478709 400.470763,83.663824 C401.514417,86.179777 403.014671,88.2437903 404.971523,89.8558638 C406.928375,91.4679374 409.667969,92.2739742 413.190303,92.2739742 Z M413.218258,88.2204944 C410.776852,88.2204944 408.722157,87.3072966 407.054173,85.4809011 C405.386189,83.6545056 404.552198,81.0174141 404.552198,77.5696267 C404.552198,74.0845658 405.306984,71.2983808 406.816555,69.2110717 C408.326127,67.1237625 410.469346,66.0801079 413.246213,66.0801079 C415.91126,66.0801079 417.975273,67.0678525 419.438253,69.0433415 C420.901233,71.0188305 421.632723,73.5534202 421.632723,76.6471106 C421.632723,80.1321714 420.854641,82.9323339 419.298478,85.0475981 C417.742314,87.1628623 415.715574,88.2204944 413.218258,88.2204944 Z M439.076664,91.6030534 L439.076664,55.4571953 L460.154759,55.4571953 L460.154759,50.6209745 L433.653387,50.6209745 L433.653387,91.6030534 L439.076664,91.6030534 Z M470.973357,92.1621541 C473.26567,92.1621541 475.026837,91.5471434 476.256858,90.3171219 C477.48688,89.0871004 479.06168,86.477964 480.981259,82.4897125 L480.981259,82.4897125 L496.356527,50.6209745 L490.961206,50.6209745 L479.276002,75.7245945 L465.913496,50.6209745 L460.434309,50.6209745 L477.039599,80.7285454 C475.884125,83.7476891 474.826492,85.6812455 473.866703,86.5292149 C472.906913,87.3771842 471.765416,87.8011689 470.442211,87.8011689 C468.820819,87.8011689 467.283293,87.3818434 465.829631,86.5431924 L465.829631,86.5431924 L465.829631,91.1837279 C467.86103,91.836012 469.575605,92.1621541 470.973357,92.1621541 Z" id="МКНСПбГУ" fill="#FFFFFF"></path>
            <g id="logo" transform="translate(-0.000000, 0.000000)">
                <polygon id="Path" fill="#0075C9" points="22.9251518 51.1182109 0.975538375 63.4099944 0.975538375 37.6557813 22.9251518 25.3639978"></polygon>
                <path d="M0.975538375,63.9465405 C0.877984538,63.9465405 0.7804307,63.8977636 0.682876863,63.8489867 C0.536546106,63.7514328 0.39021535,63.5563251 0.39021535,63.3612175 L0.39021535,37.6070044 C0.39021535,37.4118967 0.487769188,37.216789 0.682876863,37.1192352 L22.6324903,24.8762286 C22.7788211,24.7786747 23.0227057,24.7786747 23.1690364,24.8762286 C23.3153672,24.9737824 23.4616979,25.1688901 23.4616979,25.3639978 L23.4616979,51.1182109 C23.4616979,51.3133185 23.3641441,51.5084262 23.1690364,51.6059801 L1.21942297,63.8489867 C1.17064605,63.8977636 1.07309221,63.9465405 0.975538375,63.9465405 Z M1.51208448,37.9484428 L1.51208448,62.4832329 L22.3886057,50.8255494 L22.3886057,26.2907592 L1.51208448,37.9484428 Z" id="Shape" fill="#000000"></path>
                <polygon id="Path" fill="#F88D2A" points="22.9251518 75.653001 0.975538375 63.4099944 0.975538375 89.1642075 22.9251518 101.407214"></polygon>
                <path d="M22.9251518,101.94376 C22.827598,101.94376 22.7300441,101.94376 22.6812672,101.894983 L0.731653781,89.6519767 C0.536546106,89.5544228 0.438992269,89.3593152 0.438992269,89.1642075 L0.438992269,63.4099944 C0.438992269,63.2148867 0.536546106,63.019779 0.731653781,62.9222252 C0.877984538,62.8246714 1.12186913,62.8246714 1.26819989,62.9222252 L23.2178133,75.1652318 C23.412921,75.2627856 23.5104748,75.4578933 23.5104748,75.653001 L23.5104748,101.407214 C23.5104748,101.602322 23.412921,101.797429 23.2178133,101.894983 C23.1202595,101.94376 23.0227057,101.94376 22.9251518,101.94376 Z M1.51208448,88.8227691 L22.3886057,100.480453 L22.3886057,75.9456625 L1.51208448,64.2879789 L1.51208448,88.8227691 Z" id="Shape" fill="#000000"></path>
                <polygon id="Path" fill="#F88D2A" points="66.8243787 101.358437 44.8747653 89.0666537 44.8747653 114.869644 66.8243787 127.11265"></polygon>
                <path d="M66.8243787,127.649196 C66.7268249,127.649196 66.629271,127.649196 66.5804941,127.600419 L44.6308807,115.357413 C44.435773,115.259859 44.3382192,115.064751 44.3382192,114.869644 L44.3382192,89.1154306 C44.3382192,88.9203229 44.435773,88.7252152 44.6308807,88.6276614 C44.7772114,88.5301076 45.021096,88.5301076 45.1674268,88.6276614 L67.1170402,100.870668 C67.3121479,100.968222 67.4097017,101.16333 67.4097017,101.358437 L67.4097017,127.11265 C67.4097017,127.307758 67.3121479,127.502866 67.1170402,127.600419 C67.0194864,127.649196 66.9219325,127.649196 66.8243787,127.649196 Z M45.4113114,114.528205 L66.2878326,126.185889 L66.2878326,101.651099 L45.4113114,89.9934151 L45.4113114,114.528205 Z" id="Shape" fill="#000000"></path>
                <polygon id="Path" fill="#F88D2A" points="22.9251518 101.358437 0.975538375 89.0666537 0.975538375 114.869644 22.9251518 127.11265"></polygon>
                <path d="M22.9251518,127.649196 C22.827598,127.649196 22.7300441,127.649196 22.6812672,127.600419 L0.731653781,115.357413 C0.536546106,115.259859 0.438992269,115.064751 0.438992269,114.869644 L0.438992269,89.1154306 C0.438992269,88.9203229 0.536546106,88.7252152 0.731653781,88.6276614 C0.877984538,88.5301076 1.12186913,88.5301076 1.26819989,88.6276614 L23.2178133,100.870668 C23.412921,100.968222 23.5104748,101.16333 23.5104748,101.358437 L23.5104748,127.11265 C23.5104748,127.307758 23.412921,127.502866 23.2178133,127.600419 C23.1202595,127.649196 23.0227057,127.649196 22.9251518,127.649196 Z M1.51208448,114.528205 L22.3886057,126.185889 L22.3886057,101.651099 L1.51208448,89.9934151 L1.51208448,114.528205 Z" id="Shape" fill="#000000"></path>
                <polygon id="Path" fill="#F88D2A" points="132.624442 37.6557813 110.674829 25.3639978 110.674829 51.1182109 132.624442 63.4099944"></polygon>
                <path d="M132.624442,63.9465405 C132.526888,63.9465405 132.429334,63.9465405 132.380558,63.8977636 L110.430944,51.654757 C110.235836,51.5572031 110.138283,51.3620955 110.138283,51.1669878 L110.138283,25.3639978 C110.138283,25.1688901 110.235836,24.9737824 110.430944,24.8762286 C110.577275,24.7786747 110.821159,24.7786747 110.96749,24.8762286 L132.917104,37.1192352 C133.112211,37.216789 133.209765,37.4118967 133.209765,37.6070044 L133.209765,63.4099944 C133.209765,63.6051021 133.112211,63.8002097 132.917104,63.8977636 C132.81955,63.8977636 132.721996,63.9465405 132.624442,63.9465405 Z M111.211375,50.8255494 L132.087896,62.4832329 L132.087896,37.9484428 L111.211375,26.2907592 L111.211375,50.8255494 Z" id="Shape" fill="#000000"></path>
                <polygon id="Path" fill="#F88D2A" points="132.624442 63.3124406 110.674829 51.0694339 110.674829 76.8236471 132.624442 89.0666537"></polygon>
                <path d="M132.624442,89.6519767 C132.526888,89.6519767 132.429334,89.6519767 132.380558,89.6031998 L110.430944,77.3601932 C110.235836,77.2626393 110.138283,77.0675316 110.138283,76.872424 L110.138283,51.1182109 C110.138283,50.9231032 110.235836,50.7279955 110.430944,50.6304417 C110.577275,50.5328878 110.821159,50.5328878 110.96749,50.6304417 L132.917104,62.8734483 C133.112211,62.9710021 133.209765,63.1661098 133.209765,63.3612175 L133.209765,89.1154306 C133.209765,89.3105383 133.112211,89.5056459 132.917104,89.6031998 C132.81955,89.6031998 132.721996,89.6519767 132.624442,89.6519767 Z M111.211375,76.4822086 L132.087896,88.1398922 L132.087896,63.6051021 L111.211375,51.9961954 L111.211375,76.4822086 Z" id="Shape" fill="#000000"></path>
                <polygon id="Path" fill="#F88D2A" points="88.7739921 37.6557813 66.7756018 25.3639978 66.7756018 51.1182109 88.7739921 63.4099944"></polygon>
                <path d="M88.7739921,63.9465405 C88.6764383,63.9465405 88.5788845,63.9465405 88.5301076,63.8977636 L66.5804941,51.654757 C66.3853864,51.5572031 66.2878326,51.3620955 66.2878326,51.1669878 L66.2878326,25.3639978 C66.2878326,25.1688901 66.3853864,24.9737824 66.5804941,24.8762286 C66.7268249,24.7786747 66.9707095,24.7786747 67.1170402,24.8762286 L89.0666537,37.1192352 C89.2617613,37.216789 89.3593152,37.4118967 89.3593152,37.6070044 L89.3593152,63.4099944 C89.3593152,63.6051021 89.2617613,63.8002097 89.0666537,63.8977636 C88.9690998,63.8977636 88.871546,63.9465405 88.7739921,63.9465405 Z M67.3609248,50.8255494 L88.237446,62.4832329 L88.237446,37.9484428 L67.3609248,26.2907592 L67.3609248,50.8255494 Z" id="Shape" fill="#000000"></path>
                <polygon id="Path" fill="#F88D2A" points="66.8243787 25.3639978 44.8747653 13.1209911 44.8747653 38.8752043 66.8243787 51.1182109"></polygon>
                <path d="M66.8243787,51.654757 C66.7268249,51.654757 66.629271,51.654757 66.5804941,51.6059801 L44.6308807,39.3629734 C44.435773,39.2654196 44.3382192,39.0703119 44.3382192,38.8752043 L44.3382192,13.1209911 C44.3382192,12.9258835 44.435773,12.7307758 44.6308807,12.633222 C44.7772114,12.5356681 45.021096,12.5356681 45.1674268,12.633222 L67.1170402,24.8762286 C67.3121479,24.9737824 67.4097017,25.1688901 67.4097017,25.3639978 L67.4097017,51.1182109 C67.4097017,51.3133185 67.3121479,51.5084262 67.1170402,51.6059801 C67.0194864,51.654757 66.9219325,51.654757 66.8243787,51.654757 Z M45.4113114,38.5337658 L66.2878326,50.1914494 L66.2878326,25.6566593 L45.4113114,13.9989757 L45.4113114,38.5337658 Z" id="Shape" fill="#000000"></path>
                <polygon id="Path" fill="#F88D2A" points="88.7739921 63.3124406 66.7756018 51.0694339 66.7756018 76.8236471 88.7739921 89.0666537"></polygon>
                <path d="M88.7739921,89.6519767 C88.6764383,89.6519767 88.5788845,89.6519767 88.5301076,89.6031998 L66.5804941,77.3601932 C66.3853864,77.2626393 66.2878326,77.0675316 66.2878326,76.872424 L66.2878326,51.1182109 C66.2878326,50.9231032 66.3853864,50.7279955 66.5804941,50.6304417 C66.7268249,50.5328878 66.9707095,50.5328878 67.1170402,50.6304417 L89.0666537,62.8734483 C89.2617613,62.9710021 89.3593152,63.1661098 89.3593152,63.3612175 L89.3593152,89.1154306 C89.3593152,89.3105383 89.2617613,89.5056459 89.0666537,89.6031998 C88.9690998,89.6031998 88.871546,89.6519767 88.7739921,89.6519767 Z M67.3609248,76.4822086 L88.237446,88.1398922 L88.237446,63.6051021 L67.3609248,51.9474185 L67.3609248,76.4822086 Z" id="Shape" fill="#000000"></path>
                <polygon id="Path" fill="#F88D2A" points="88.7739921 113.698998 66.7756018 101.407214 66.7756018 127.161427 88.7739921 139.453211"></polygon>
                <path d="M88.7739921,139.989757 C88.6764383,139.989757 88.5788845,139.989757 88.5301076,139.94098 L66.5804941,127.697973 C66.3853864,127.600419 66.2878326,127.405312 66.2878326,127.210204 L66.2878326,101.455991 C66.2878326,101.260883 66.3853864,101.065776 66.5804941,100.968222 C66.7268249,100.870668 66.9707095,100.870668 67.1170402,100.968222 L89.0666537,113.211228 C89.2617613,113.308782 89.3593152,113.50389 89.3593152,113.698998 L89.3593152,139.453211 C89.3593152,139.648318 89.2617613,139.843426 89.0666537,139.94098 C88.9690998,139.94098 88.871546,139.989757 88.7739921,139.989757 Z M67.3609248,126.868766 L88.237446,138.526449 L88.237446,113.991659 L67.3609248,102.333976 L67.3609248,126.868766 Z" id="Shape" fill="#000000"></path>
                <polygon id="Path" fill="#0075C9" points="44.8747653 38.8752043 22.9251518 51.1182109 22.8763749 25.3639978 44.8747653 13.0722142"></polygon>
                <path d="M22.9251518,51.654757 C22.827598,51.654757 22.7300441,51.6059801 22.6324903,51.5572031 C22.4861595,51.4596493 22.3886057,51.2645416 22.3398288,51.0694339 L22.2910519,25.2664439 C22.2910519,25.0713362 22.3886057,24.8762286 22.5837134,24.7786747 L44.5333268,12.5356681 C44.6796576,12.4381143 44.9235422,12.4381143 45.0698729,12.5356681 C45.2162037,12.633222 45.3625344,12.8283296 45.3625344,13.0234373 L45.3625344,38.7776504 C45.3625344,38.9727581 45.2649806,39.1678658 45.0698729,39.2654196 L23.1202595,51.5572031 C23.1202595,51.654757 23.0227057,51.654757 22.9251518,51.654757 Z M23.4616979,25.6566593 L23.5104748,50.1914494 L44.3382192,38.5337658 L44.3382192,13.9989757 L23.4616979,25.6566593 Z" id="Shape" fill="#000000"></path>
                <polygon id="Path" fill="#0075C9" points="44.8747653 89.1642075 22.9251518 101.455991 22.9251518 75.653001 44.8747653 63.4099944"></polygon>
                <path d="M22.9251518,101.992537 C22.827598,101.992537 22.7300441,101.94376 22.6324903,101.894983 C22.4861595,101.797429 22.3398288,101.602322 22.3398288,101.407214 L22.3398288,75.653001 C22.3398288,75.4578933 22.4373826,75.2627856 22.6324903,75.1652318 L44.5821037,62.9222252 C44.7284345,62.8246714 44.9723191,62.8246714 45.1186499,62.9222252 C45.2649806,63.019779 45.4113114,63.2148867 45.4113114,63.4099944 L45.4113114,89.1642075 C45.4113114,89.3593152 45.3137575,89.5544228 45.1186499,89.6519767 L23.1690364,101.894983 C23.1202595,101.94376 23.0227057,101.992537 22.9251518,101.992537 Z M23.4616979,75.9944394 L23.4616979,100.52923 L44.3382192,88.871546 L44.3382192,64.3367558 L23.4616979,75.9944394 Z" id="Shape" fill="#000000"></path>
                <polygon id="Path" fill="#0075C9" points="44.8747653 114.869644 22.9251518 127.11265 22.9251518 101.358437 44.8747653 89.0666537"></polygon>
                <path d="M22.9251518,127.649196 C22.827598,127.649196 22.7300441,127.600419 22.6324903,127.551643 C22.4861595,127.454089 22.3398288,127.258981 22.3398288,127.063873 L22.3398288,101.30966 C22.3398288,101.114553 22.4373826,100.919445 22.6324903,100.821891 L44.5821037,88.5788845 C44.7284345,88.4813306 44.9723191,88.4813306 45.1186499,88.5788845 C45.2649806,88.6764383 45.4113114,88.871546 45.4113114,89.0666537 L45.4113114,114.820867 C45.4113114,115.015974 45.3137575,115.211082 45.1186499,115.308636 L23.1690364,127.551643 C23.1202595,127.649196 23.0227057,127.649196 22.9251518,127.649196 Z M23.4616979,101.651099 L23.4616979,126.185889 L44.3382192,114.528205 L44.3382192,89.9934151 L23.4616979,101.651099 Z" id="Shape" fill="#000000"></path>
                <polygon id="Path" fill="#0075C9" points="110.723606 51.1182109 88.7739921 63.4099944 88.7739921 37.6557813 110.723606 25.3639978"></polygon>
                <path d="M88.7739921,63.9465405 C88.6764383,63.9465405 88.5788845,63.8977636 88.4813306,63.8489867 C88.3349999,63.7514328 88.1886691,63.5563251 88.1886691,63.3612175 L88.1886691,37.6070044 C88.1886691,37.4118967 88.286223,37.216789 88.4813306,37.1192352 L110.430944,24.8762286 C110.577275,24.7786747 110.821159,24.7786747 110.96749,24.8762286 C111.113821,24.9737824 111.260152,25.1688901 111.260152,25.3639978 L111.260152,51.1182109 C111.260152,51.3133185 111.162598,51.5084262 110.96749,51.6059801 L89.0178767,63.8489867 C88.9203229,63.8977636 88.8227691,63.9465405 88.7739921,63.9465405 Z M89.3105383,37.9484428 L89.3105383,62.4832329 L110.187059,50.8255494 L110.187059,26.2907592 L89.3105383,37.9484428 Z" id="Shape" fill="#000000"></path>
                <polygon id="Path" fill="#0075C9" points="110.723606 76.8236471 88.7739921 89.0666537 88.7739921 63.3124406 110.723606 51.020657"></polygon>
                <path d="M88.7739921,89.6031998 C88.6764383,89.6031998 88.5788845,89.5544228 88.4813306,89.5056459 C88.3349999,89.4080921 88.1886691,89.2129844 88.1886691,89.0178767 L88.1886691,63.2636636 C88.1886691,63.068556 88.286223,62.8734483 88.4813306,62.7758944 L110.430944,50.5328878 C110.577275,50.435334 110.821159,50.435334 110.96749,50.5328878 C111.113821,50.6304417 111.260152,50.8255494 111.260152,51.020657 L111.260152,76.7748701 C111.260152,76.9699778 111.162598,77.1650855 110.96749,77.2626393 L89.0178767,89.5056459 C88.9203229,89.6031998 88.8227691,89.6031998 88.7739921,89.6031998 Z M89.3105383,63.6051021 L89.3105383,88.1398922 L110.187059,76.4822086 L110.187059,51.9474185 L89.3105383,63.6051021 Z" id="Shape" fill="#000000"></path>
                <polygon id="Path" fill="#0075C9" points="66.7756018 76.9212009 44.8747653 89.1642075 44.8259883 63.4099944 66.7756018 51.1182109"></polygon>
                <path d="M44.8747653,89.7007536 C44.7772114,89.7007536 44.6796576,89.6519767 44.5821037,89.6031998 C44.435773,89.5056459 44.3382192,89.3105383 44.2894422,89.1154306 L44.2406653,63.3124406 C44.2406653,63.1173329 44.3382192,62.9222252 44.5333268,62.8246714 L66.4829403,50.5816648 C66.629271,50.4841109 66.8731556,50.4841109 67.0194864,50.5816648 C67.1658171,50.6792186 67.3121479,50.8743263 67.3121479,51.0694339 L67.3121479,76.8236471 C67.3121479,77.0187547 67.2145941,77.2138624 67.0194864,77.3114162 L45.0698729,89.6031998 C45.0698729,89.7007536 44.9723191,89.7007536 44.8747653,89.7007536 Z M45.3625344,63.7026559 L45.4113114,88.237446 L66.2390557,76.5797625 L66.2390557,52.0449723 L45.3625344,63.7026559 Z" id="Shape" fill="#000000"></path>
                <polygon id="Path" fill="#0075C9" points="110.723606 127.210204 88.7739921 139.501988 88.7739921 113.698998 110.723606 101.455991"></polygon>
                <path d="M88.7739921,140.038534 C88.6764383,140.038534 88.5788845,139.989757 88.4813306,139.94098 C88.3349999,139.843426 88.1886691,139.648318 88.1886691,139.453211 L88.1886691,113.698998 C88.1886691,113.50389 88.286223,113.308782 88.4813306,113.211228 L110.430944,100.968222 C110.577275,100.870668 110.821159,100.870668 110.96749,100.968222 C111.113821,101.065776 111.260152,101.260883 111.260152,101.455991 L111.260152,127.210204 C111.260152,127.405312 111.162598,127.600419 110.96749,127.697973 L89.0178767,139.94098 C88.9203229,139.989757 88.8227691,140.038534 88.7739921,140.038534 Z M89.3105383,114.040436 L89.3105383,138.575226 L110.187059,126.917543 L110.187059,102.382752 L89.3105383,114.040436 Z" id="Shape" fill="#000000"></path>
                <polygon id="Path" fill="#0075C9" points="132.624442 114.918421 110.723606 127.210204 110.674829 101.455991 132.624442 89.1642075"></polygon>
                <path d="M110.723606,127.74675 C110.626052,127.74675 110.528498,127.697973 110.430944,127.649196 C110.284613,127.551643 110.187059,127.356535 110.138283,127.161427 L110.089506,101.358437 C110.089506,101.16333 110.187059,100.968222 110.382167,100.870668 L132.331781,88.6276614 C132.478111,88.5301076 132.721996,88.5301076 132.868327,88.6276614 C133.014657,88.7252152 133.160988,88.9203229 133.160988,89.1154306 L133.160988,114.869644 C133.160988,115.064751 133.063434,115.259859 132.868327,115.357413 L110.918713,127.649196 C110.869936,127.74675 110.821159,127.74675 110.723606,127.74675 Z M111.211375,101.748653 L111.260152,126.283443 L132.087896,114.625759 L132.087896,90.090969 L111.211375,101.748653 Z" id="Shape" fill="#000000"></path>
                <polygon id="Path" fill="#10CFC9" points="110.674829 25.3639978 88.7252152 13.1209911 66.8243787 25.3639978 88.7252152 37.6557813"></polygon>
                <path d="M88.7252152,38.1923274 C88.6276614,38.1923274 88.5301076,38.1923274 88.4813306,38.1435505 L66.5317172,25.9005439 C66.3366095,25.80299 66.2390557,25.6078824 66.2390557,25.4127747 C66.2390557,25.217667 66.3366095,25.0225593 66.5317172,24.9250055 L88.4813306,12.633222 C88.6276614,12.5356681 88.871546,12.5356681 89.0178767,12.633222 L110.96749,24.9250055 C111.162598,25.0225593 111.260152,25.217667 111.260152,25.4127747 C111.260152,25.6078824 111.162598,25.80299 110.96749,25.9005439 L89.0178767,38.1435505 C88.9203229,38.1435505 88.8227691,38.1923274 88.7252152,38.1923274 Z M67.9462478,25.3639978 L88.7739921,36.9729044 L109.601736,25.3152208 L88.7739921,13.6575373 L67.9462478,25.3639978 Z" id="Shape" fill="#000000"></path>
                <polygon id="Path" fill="#10CFC9" points="88.7739921 13.1209911 66.8243787 0.829207619 44.8747653 13.1209911 66.8243787 25.3639978"></polygon>
                <path d="M66.8243787,25.9005439 C66.7268249,25.9005439 66.629271,25.9005439 66.5804941,25.8517669 L44.6308807,13.6087603 C44.435773,13.5112065 44.3382192,13.3160988 44.3382192,13.1209911 C44.3382192,12.9258835 44.435773,12.7307758 44.6308807,12.633222 L66.5804941,0.341438431 C66.7268249,0.243884594 66.9707095,0.243884594 67.1170402,0.341438431 L89.0666537,12.633222 C89.2617613,12.7307758 89.3593152,12.9258835 89.3593152,13.1209911 C89.3593152,13.3160988 89.2617613,13.5112065 89.0666537,13.6087603 L67.1170402,25.8517669 C66.9707095,25.9005439 66.8731556,25.9005439 66.8243787,25.9005439 Z M45.9966344,13.1209911 L66.8243787,24.7298978 L87.652123,13.0722142 L66.8243787,1.46330756 L45.9966344,13.1209911 Z" id="Shape" fill="#000000"></path>
                <polygon id="Path" fill="#10CFC9" points="110.674829 101.260883 88.7252152 88.9690998 66.8243787 101.260883 88.7252152 113.50389"></polygon>
                <path d="M88.7252152,114.040436 C88.6276614,114.040436 88.5301076,114.040436 88.4813306,113.991659 L66.5317172,101.748653 C66.3366095,101.651099 66.2390557,101.455991 66.2390557,101.260883 C66.2390557,101.065776 66.3366095,100.870668 66.5317172,100.773114 L88.4813306,88.4813306 C88.6276614,88.3837768 88.871546,88.3837768 89.0178767,88.4813306 L110.96749,100.773114 C111.162598,100.870668 111.260152,101.065776 111.260152,101.260883 C111.260152,101.455991 111.162598,101.651099 110.96749,101.748653 L89.0178767,113.991659 C88.9203229,114.040436 88.8227691,114.040436 88.7252152,114.040436 Z M67.8974709,101.260883 L88.7252152,112.86979 L109.55296,101.212106 L88.7252152,89.5544228 L67.8974709,101.260883 Z" id="Shape" fill="#000000"></path>
                <polygon id="Path" fill="#10CFC9" points="132.673219 89.0666537 110.674829 76.8236471 88.7739921 89.0666537 110.674829 101.30966"></polygon>
                <path d="M110.674829,101.894983 C110.577275,101.894983 110.479721,101.894983 110.430944,101.846206 L88.4813306,89.6031998 C88.286223,89.5056459 88.1886691,89.3105383 88.1886691,89.1154306 C88.1886691,88.9203229 88.286223,88.7252152 88.4813306,88.6276614 L110.430944,76.3358779 C110.577275,76.238324 110.821159,76.238324 110.96749,76.3358779 L132.917104,88.6276614 C133.112211,88.7252152 133.209765,88.9203229 133.209765,89.1154306 C133.209765,89.3105383 133.112211,89.5056459 132.917104,89.6031998 L110.96749,101.846206 C110.869936,101.846206 110.772383,101.894983 110.674829,101.894983 Z M89.8958613,89.0666537 L110.723606,100.67556 L131.55135,89.0178767 L110.723606,77.3601932 L89.8958613,89.0666537 Z" id="Shape" fill="#000000"></path>
                <polygon id="Path" fill="#10CFC9" points="88.7739921 88.9690998 66.7756018 76.7260932 44.8747653 88.9690998 66.7756018 101.260883"></polygon>
                <path d="M66.7756018,101.797429 C66.6780479,101.797429 66.5804941,101.797429 66.5317172,101.748653 L44.5821037,89.5056459 C44.3869961,89.4080921 44.2894422,89.2129844 44.2894422,89.0178767 C44.2894422,88.8227691 44.3869961,88.6276614 44.5821037,88.5301076 L66.5317172,76.238324 C66.6780479,76.1407702 66.9219325,76.1407702 67.0682633,76.238324 L89.0178767,88.5301076 C89.2129844,88.6276614 89.3105383,88.8227691 89.3105383,89.0178767 C89.3105383,89.2129844 89.2129844,89.4080921 89.0178767,89.5056459 L67.0682633,101.748653 C66.9707095,101.748653 66.8731556,101.797429 66.7756018,101.797429 Z M45.9966344,88.9690998 L66.8243787,100.578006 L87.652123,88.9203229 L66.8243787,77.2626393 L45.9966344,88.9690998 Z" id="Shape" fill="#000000"></path>
                <polygon id="Path" fill="#10CFC9" points="88.7252152 139.453211 66.7756018 127.210204 44.8259883 139.453211 66.7756018 151.744994"></polygon>
                <path d="M66.7756018,152.28154 C66.6780479,152.28154 66.5804941,152.28154 66.5317172,152.232763 L44.5821037,139.989757 C44.3869961,139.892203 44.2894422,139.697095 44.2894422,139.501988 C44.2894422,139.30688 44.3869961,139.111772 44.5821037,139.014218 L66.5317172,126.722435 C66.6780479,126.624881 66.9219325,126.624881 67.0682633,126.722435 L89.0178767,139.014218 C89.2129844,139.111772 89.3105383,139.30688 89.3105383,139.501988 C89.3105383,139.697095 89.2129844,139.892203 89.0178767,139.989757 L67.0682633,152.232763 C66.9707095,152.232763 66.8731556,152.28154 66.7756018,152.28154 Z M45.9478575,139.453211 L66.7756018,151.062117 L87.6033461,139.404434 L66.7756018,127.795527 L45.9478575,139.453211 Z" id="Shape" fill="#000000"></path>
                <polygon id="Path" fill="#10CFC9" points="66.7756018 127.210204 44.8259883 114.918421 22.9251518 127.210204 44.8259883 139.453211"></polygon>
                <path d="M44.8259883,139.989757 C44.7284345,139.989757 44.6308807,139.989757 44.5821037,139.94098 L22.6324903,127.697973 C22.4373826,127.600419 22.3398288,127.405312 22.3398288,127.210204 C22.3398288,127.015096 22.4373826,126.819989 22.6324903,126.722435 L44.5821037,114.430651 C44.7284345,114.333098 44.9723191,114.333098 45.1186499,114.430651 L67.0682633,126.722435 C67.263371,126.819989 67.3609248,127.015096 67.3609248,127.210204 C67.3609248,127.405312 67.263371,127.600419 67.0682633,127.697973 L45.1186499,139.94098 C45.021096,139.989757 44.9235422,139.989757 44.8259883,139.989757 Z M24.0470209,127.210204 L44.8747653,138.819111 L65.7025096,127.161427 L44.8747653,115.503744 L24.0470209,127.210204 Z" id="Shape" fill="#000000"></path>
                <polygon id="Path" fill="#10CFC9" points="66.8243787 51.0694339 44.8747653 38.7776504 22.9251518 51.0694339 44.8747653 63.3124406"></polygon>
                <path d="M44.8747653,63.8489867 C44.7772114,63.8489867 44.6796576,63.8489867 44.6308807,63.8002097 L22.6812672,51.5572031 C22.4861595,51.4596493 22.3886057,51.2645416 22.3886057,51.0694339 C22.3886057,50.8743263 22.4861595,50.6792186 22.6812672,50.5816648 L44.6308807,38.2898812 C44.7772114,38.1923274 45.021096,38.1923274 45.1674268,38.2898812 L67.1170402,50.5816648 C67.3121479,50.6792186 67.4097017,50.8743263 67.4097017,51.0694339 C67.4097017,51.2645416 67.3121479,51.4596493 67.1170402,51.5572031 L45.1674268,63.8002097 C45.021096,63.8489867 44.9723191,63.8489867 44.8747653,63.8489867 Z M24.0470209,51.0694339 L44.8747653,62.6783406 L65.7025096,51.020657 L44.8747653,39.4117504 L24.0470209,51.0694339 Z" id="Shape" fill="#000000"></path>
                <polygon id="Path" fill="#10CFC9" points="44.8259883 63.4099944 22.8763749 51.1182109 0.975538375 63.4099944 22.8763749 75.653001"></polygon>
                <path d="M22.8763749,76.1895471 C22.7788211,76.1895471 22.6812672,76.1895471 22.6324903,76.1407702 L0.682876863,63.8977636 C0.487769188,63.8002097 0.39021535,63.6051021 0.39021535,63.4099944 C0.39021535,63.2148867 0.487769188,63.019779 0.682876863,62.9222252 L22.6324903,50.6304417 C22.7788211,50.5328878 23.0227057,50.5328878 23.1690364,50.6304417 L45.1186499,62.9222252 C45.3137575,63.019779 45.4113114,63.2148867 45.4113114,63.4099944 C45.4113114,63.6051021 45.3137575,63.8002097 45.1186499,63.8977636 L23.1690364,76.1407702 C23.0714826,76.1895471 22.9739287,76.1895471 22.8763749,76.1895471 Z M2.04863059,63.4099944 L22.8763749,75.0189011 L43.7041192,63.3612175 L22.8763749,51.7035339 L2.04863059,63.4099944 Z" id="Shape" fill="#000000"></path>
            </g>
        </g>
    </g>
</svg>